<?xml version="1.0" standalone="no"?>
<!DOCTYPE svg PUBLIC "-//W3C//DTD SVG 20010904//EN" "http://www.w3.org/TR/2001/REC-SVG-20010904/DTD/svg10.dtd">
<svg version="1.0" xmlns="http://www.w3.org/2000/svg"
    width="850.000000pt" height="850.000000pt" viewBox="0 0 850.000000 850.000000"
    preserveAspectRatio="xMidYMid meet">
    <metadata> Automobiles.com </metadata>
    <g transform="translate(0.000000,850.000000) scale(0.100000,-0.100000)"
        fill="#500675" stroke="none">
        <path
            d="M4015 8490 c-1744 -98 -3244 -1245 -3795 -2900 -150 -448 -213 -847
-213 -1340 0 -500 68 -920 223 -1373 590 -1724 2200 -2877 4020 -2877 1299 0
2514 586 3328 1605 941 1178 1180 2786 625 4205 -52 133 -180 402 -255 534
-85 151 -269 423 -385 566 -208 260 -512 551 -794 760 -781 580 -1773 875
-2754 820z m-181 -2900 c651 -29 1045 -130 1521 -387 141 -77 264 -150 526
-313 l192 -120 101 0 c358 0 872 -88 1403 -240 275 -78 388 -142 448 -251 28
-50 30 -62 29 -149 0 -91 -4 -105 -71 -305 -40 -115 -81 -249 -92 -298 -32
-134 -55 -168 -146 -208 -40 -18 -251 -53 -263 -44 -1 1 5 33 14 71 25 101 22
277 -5 379 -81 305 -301 525 -606 606 -112 30 -288 30 -400 0 -239 -64 -440
-228 -545 -444 -102 -212 -108 -466 -17 -683 14 -32 23 -62 20 -66 -2 -5 -728
-8 -1612 -8 l-1608 0 34 85 c99 246 78 510 -58 743 -49 82 -199 230 -287 282
-141 83 -333 129 -482 115 -219 -21 -393 -106 -545 -267 -102 -108 -160 -214
-202 -369 -27 -98 -25 -300 5 -402 12 -42 22 -81 22 -86 0 -13 -71 3 -300 65
-113 30 -228 66 -257 80 -98 47 -172 163 -198 311 -17 95 -18 162 -4 272 12
103 29 145 77 194 l37 38 -3 239 c-3 208 -1 243 13 274 23 49 66 82 127 101
53 15 347 59 478 70 93 9 184 48 680 295 520 259 645 307 930 364 293 58 612
75 1044 56z m-1695 -1455 c195 -46 374 -207 441 -398 46 -130 48 -272 5 -402
-35 -106 -71 -162 -159 -251 -131 -131 -254 -179 -456 -178 -101 0 -124 4
-185 28 -101 39 -151 71 -228 145 -127 122 -189 263 -191 436 -1 154 36 269
127 392 79 107 215 196 345 228 77 18 222 18 301 0z m4683 4 c171 -35 348
-177 426 -339 48 -102 62 -163 62 -278 0 -171 -58 -310 -180 -433 -335 -336
-882 -206 -1041 248 -29 81 -35 227 -15 322 48 224 232 416 456 475 66 18 219
20 292 5z" />
        <path
            d="M3477 5459 c-134 -10 -330 -42 -462 -74 -499 -123 -775 -325 -811
-594 l-7 -51 782 0 781 0 0 21 c0 123 -55 661 -71 690 -11 21 -29 22 -212 8z" />
        <path
            d="M3894 5444 c36 -93 121 -437 163 -654 l9 -45 597 0 597 0 -6 46 c-8
60 13 101 64 126 l39 18 -91 59 c-141 91 -324 200 -405 241 -256 128 -549 204
-858 222 -112 6 -116 6 -109 -13z" />
        <path
            d="M1910 3939 c-71 -14 -161 -63 -217 -119 -263 -265 -75 -710 299 -710
266 0 467 251 407 509 -36 158 -176 290 -339 321 -61 11 -87 11 -150 -1z" />
        <path
            d="M6595 3936 c-128 -31 -232 -115 -288 -233 -30 -64 -32 -75 -32 -178
0 -105 2 -114 33 -178 43 -86 114 -157 199 -199 64 -31 74 -33 178 -33 99 0
116 3 169 28 186 87 284 278 242 471 -36 160 -157 283 -316 320 -76 18 -117
19 -185 2z" />
    </g>
</svg>