<?xml version="1.0" standalone="no"?>
<!DOCTYPE svg PUBLIC "-//W3C//DTD SVG 20010904//EN"
 "http://www.w3.org/TR/2001/REC-SVG-20010904/DTD/svg10.dtd">
<svg version="1.0" xmlns="http://www.w3.org/2000/svg"
 width="850.000000pt" height="850.000000pt" viewBox="0 0 850.000000 850.000000"
 preserveAspectRatio="xMidYMid meet">
<metadata>
Created by potrace 1.16, written by Peter Selinger 2001-2019
</metadata>
<g transform="translate(0.000000,850.000000) scale(0.100000,-0.100000)"
fill="white" stroke="none">
<path d="M3155 5569 c-222 -18 -461 -63 -634 -119 -140 -46 -244 -92 -636
-287 -198 -98 -417 -204 -487 -236 -121 -54 -133 -57 -265 -72 -229 -27 -406
-56 -448 -74 -22 -10 -54 -34 -72 -54 -42 -48 -47 -98 -34 -312 13 -202 8
-232 -48 -289 -34 -35 -44 -53 -56 -111 -22 -103 -19 -275 5 -370 29 -115 101
-214 188 -259 59 -30 522 -150 522 -135 0 2 -7 26 -15 53 -44 145 -38 335 14
493 45 131 104 226 206 328 74 74 108 99 190 142 153 79 230 98 405 98 121 0
158 -4 223 -23 201 -58 380 -186 482 -346 161 -252 183 -553 61 -828 -8 -17
71 -18 1578 -18 872 0 1586 3 1586 6 0 3 -13 43 -29 89 -79 222 -64 450 43
663 107 212 261 344 492 422 181 60 404 52 577 -20 245 -103 406 -277 488
-530 39 -118 50 -289 26 -410 -8 -41 -14 -76 -14 -77 7 -6 178 19 217 32 59
20 124 86 139 142 5 21 17 67 26 103 9 36 46 153 82 260 101 297 100 392 -6
500 -76 77 -142 111 -306 160 -538 161 -1003 245 -1455 266 l-145 6 -230 143
c-411 254 -604 360 -835 453 -289 116 -626 185 -1045 212 -183 12 -643 11
-790 -1z m562 -164 c20 -125 46 -417 47 -545 l1 -125 -785 0 -785 0 -3 43 c-6
84 54 216 138 302 161 166 535 312 942 370 186 26 203 27 328 26 l105 -1 12
-70z m373 60 c106 -7 235 -29 365 -61 242 -61 460 -166 798 -381 114 -74 135
-96 100 -107 -10 -3 -31 -17 -48 -30 -26 -21 -31 -32 -35 -88 l-5 -63 -599 -3
c-330 -1 -603 1 -607 5 -4 5 -28 103 -53 218 -44 204 -107 440 -128 478 -20
37 -3 48 64 43 35 -3 101 -8 148 -11z"/>
<path d="M1868 4124 c-89 -19 -148 -45 -224 -99 -159 -114 -250 -273 -261
-461 -12 -188 40 -318 181 -460 135 -135 244 -184 410 -184 195 1 301 45 442
185 141 140 193 271 181 459 -9 138 -49 239 -138 346 -95 114 -212 185 -352
214 -92 19 -150 19 -239 0z m251 -183 c123 -38 209 -112 262 -225 59 -127 59
-256 -1 -382 -43 -90 -99 -148 -184 -189 -141 -70 -271 -70 -412 0 -118 58
-201 174 -224 315 -28 164 59 356 197 437 107 62 248 80 362 44z"/>
<path d="M6583 4130 c-127 -23 -242 -88 -340 -193 -101 -108 -147 -206 -162
-341 -26 -235 80 -451 290 -590 183 -120 449 -118 636 4 78 51 180 161 220
237 51 95 67 165 67 283 -1 178 -56 301 -191 431 -85 82 -133 112 -227 144
-84 28 -213 39 -293 25z m300 -218 c101 -50 145 -95 196 -201 35 -73 36 -80
36 -187 0 -108 -1 -112 -39 -189 -46 -93 -103 -152 -187 -194 -132 -66 -261
-67 -393 -3 -47 23 -98 57 -123 82 -46 47 -96 141 -112 210 -43 185 50 394
211 476 89 46 126 54 229 51 91 -2 102 -5 182 -45z"/>
</g>
</svg>
